<?xml version="1.0" encoding="UTF-8" standalone="no"?>
<!-- Created with Inkscape (http://www.inkscape.org/) -->

<svg
   xmlns:dc="http://purl.org/dc/elements/1.1/"
   xmlns:cc="http://creativecommons.org/ns#"
   xmlns:rdf="http://www.w3.org/1999/02/22-rdf-syntax-ns#"
   xmlns:svg="http://www.w3.org/2000/svg"
   xmlns="http://www.w3.org/2000/svg"
   xmlns:sodipodi="http://sodipodi.sourceforge.net/DTD/sodipodi-0.dtd"
   xmlns:inkscape="http://www.inkscape.org/namespaces/inkscape"
   width="210mm"
   height="297mm"
   viewBox="0 0 210 297"
   version="1.1"
   id="svg8"
   inkscape:version="0.92.4 (5da689c313, 2019-01-14)"
   sodipodi:docname="CLAHub_logo.svg">
  <defs
     id="defs2" />
  <sodipodi:namedview
     id="base"
     pagecolor="#ffffff"
     bordercolor="#666666"
     borderopacity="1.0"
     inkscape:pageopacity="0.0"
     inkscape:pageshadow="2"
     inkscape:zoom="0.98994949"
     inkscape:cx="419.32554"
     inkscape:cy="810.96293"
     inkscape:document-units="mm"
     inkscape:current-layer="layer2"
     showgrid="false"
     inkscape:window-width="1920"
     inkscape:window-height="986"
     inkscape:window-x="-11"
     inkscape:window-y="-11"
     inkscape:window-maximized="1" />
  <metadata
     id="metadata5">
    <rdf:RDF>
      <cc:Work
         rdf:about="">
        <dc:format>image/svg+xml</dc:format>
        <dc:type
           rdf:resource="http://purl.org/dc/dcmitype/StillImage" />
        <dc:title></dc:title>
      </cc:Work>
    </rdf:RDF>
  </metadata>
  <g
     inkscape:label="Layer 1"
     inkscape:groupmode="layer"
     id="layer1">
    <path
       inkscape:connector-curvature="0"
       style="fill:#666666;stroke:#000000;stroke-width:1.77999997;stroke-miterlimit:4;stroke-dasharray:none;stroke-opacity:1"
       d="m 71.933414,70.508955 c 4.764854,7.769448 0,27.34252 0,27.34252 1.039777,-0.234519 2.114178,-0.353434 3.19361,-0.35347 6.568698,-1.55e-4 11.893794,4.307635 11.89384,9.621635 -4.3e-5,5.314 -5.32514,9.62179 -11.89384,9.62164 -1.079988,-0.003 -2.1544,-0.12545 -3.19361,-0.36329 -1.044399,-0.23903 -6.165793,19.78346 0,25.75916 4.08724,3.96123 10.144763,0.44835 16.925372,-0.20381 5.131278,-0.49353 17.164984,-0.76875 17.208854,-0.86527 0.65848,-0.17079 -4.87675,3.73696 -4.87905,4.13731 -2.997594,4.89534 2.22423,8.14913 6.94625,8.14917 4.72202,-5e-5 13.36913,-4.3917 9.4948,-8.36641 0,0 -4.67757,-2.2422 -4.016,-4.016 3.2243,-8.64502 25.64016,0.9321 27.6096,-1.97541 4.43595,-6.54886 2.52043,-20.55234 -0.86863,-23.71355 -3.38905,-3.1612 0.17222,0.92281 -0.41445,0.92376 -5.90448,2e-5 -10.69098,-3.94893 -10.69082,-8.82013 1.8e-4,-4.871 4.78658,-8.819643 10.69082,-8.819625 0.58691,0.0033 1.17249,0.04656 1.7508,0.1292 0,0 8.782,-29.027136 0,-28.18743 -8.4975,0.812503 -25.60878,0 -25.60878,0 0.0561,0.44081 0.0858,0.885605 0.0889,1.331185 -1.1e-4,5.323752 -3.71767,9.639389 -8.30337,9.639204 -4.5855,-1.51e-4 -8.302739,-4.315689 -8.302846,-9.639204 0.0033,-0.445594 0.533776,-1.331185 0.0894,-1.331185 0,0 -30.006877,-3.727537 -27.72085,0 z"
       id="rect5719-4"
       sodipodi:nodetypes="sccccsssccccsszccccsccccss"
       inkscape:export-xdpi="13.71"
       inkscape:export-ydpi="13.71" />
  </g>
  <g
     inkscape:groupmode="layer"
     id="layer3"
     inkscape:label="Layer 2">
    <flowRoot
       xml:space="preserve"
       id="flowRoot7677"
       style="font-style:normal;font-variant:normal;font-weight:normal;font-stretch:normal;font-size:40px;line-height:1.25;font-family:'AdLib BT';-inkscape-font-specification:'AdLib BT';letter-spacing:0px;word-spacing:0px;fill:#ffffff;fill-opacity:1;stroke:none"
       transform="matrix(0.26458333,0,0,0.26458333,-8.6934524,33.072917)"
       inkscape:export-xdpi="13.71"
       inkscape:export-ydpi="13.71"><flowRegion
         id="flowRegion7679"
         style="font-style:normal;font-variant:normal;font-weight:normal;font-stretch:normal;font-family:'AdLib BT';-inkscape-font-specification:'AdLib BT';fill:#ffffff"><rect
           id="rect7681"
           width="83.5168"
           height="116.39022"
           x="470.71429"
           y="297.51968"
           style="font-style:normal;font-variant:normal;font-weight:normal;font-stretch:normal;font-family:'AdLib BT';-inkscape-font-specification:'AdLib BT';fill:#ffffff" /></flowRegion><flowPara
         id="flowPara7683"
         style="font-style:normal;font-variant:normal;font-weight:normal;font-stretch:normal;font-size:96px;font-family:'AdLib BT';-inkscape-font-specification:'AdLib BT';fill:#ffffff">B</flowPara></flowRoot>  </g>
  <g
     inkscape:groupmode="layer"
     id="layer2"
     inkscape:label="Letters">
    <path
       style="font-style:normal;font-variant:normal;font-weight:normal;font-stretch:normal;font-size:200.00065613px;line-height:1.25;font-family:'AdLib BT';-inkscape-font-specification:'AdLib BT';letter-spacing:0px;word-spacing:0px;fill:#008000;fill-opacity:1;stroke:#000000;stroke-width:1.78499997;stroke-miterlimit:4;stroke-dasharray:none;stroke-opacity:1"
       d="m 44.451825,63.160498 c -8.94861,0 -16.125606,2.721751 -21.530984,8.164878 -5.405378,5.418829 -8.108549,12.623309 -8.108549,21.614179 0,8.869375 2.68976,15.916405 8.069275,21.140835 5.379515,5.22443 12.647278,7.83673 21.802808,7.83673 7.52262,0 13.63761,-1.95506 18.34565,-5.86424 a 15.071659,12.131695 0 0 0 9.71723,2.85874 15.071659,12.131695 0 0 0 15.07195,-12.13157 15.071659,12.131695 0 0 0 -15.07195,-12.132065 15.071659,12.131695 0 0 0 -10.63966,3.54965 l -6.94893,-0.41031 -0.93069,9.768905 h -18.77663 l -0.46561,-12.210615 0.69815,-20.30264 h 15.90601 l 0.7369,11.11715 c 2.01732,0.1215 3.90557,0.21856 5.66426,0.29146 1.78455,0.0486 3.49124,0.0729 5.12062,0.0729 1.3966,0 2.72884,-0.0119 3.99614,-0.0362 1.29315,-0.0243 2.46963,-0.061 3.53001,-0.10955 0.0776,-0.6804 0.12917,-1.17859 0.15503,-1.49449 0.0259,-0.31589 0.0393,-0.59519 0.0393,-0.83819 0,-6.26931 -2.41846,-11.311677 -7.25485,-15.126723 -4.81053,-3.839347 -11.18549,-5.758823 -19.12545,-5.758823 z"
       id="flowRoot6732"
       inkscape:connector-curvature="0"
       inkscape:export-xdpi="13.71"
       inkscape:export-ydpi="13.71" />
    <path
       style="font-style:normal;font-weight:normal;font-size:320px;line-height:1.25;font-family:sans-serif;letter-spacing:0px;word-spacing:0px;fill:#0000ff;fill-opacity:1;stroke:#000000;stroke-width:1.77999997;stroke-miterlimit:4;stroke-dasharray:none;stroke-opacity:1"
       d="m 109.1704,9.4477136 -18.660357,0.6335534 0.23771,28.486116 -0.95084,30.822923 7.96747,0.268203 a 11.358955,12.828937 0 0 0 11.347627,12.46642 11.358955,12.828937 0 0 0 11.31972,-11.942939 c 0.89729,0.01187 1.7866,0.02228 2.72387,0.04031 2.7733,0.07924 5.90317,0.185233 9.3896,0.317294 l 0.67335,-14.698842 -24.28586,0.237709 z"
       id="flowRoot7625"
       inkscape:connector-curvature="0"
       inkscape:export-xdpi="13.71"
       inkscape:export-ydpi="13.71" />
    <ellipse
       style="fill:#008000;fill-opacity:1;stroke:none;stroke-width:1.78499997;stroke-miterlimit:4;stroke-dasharray:none;stroke-opacity:1"
       id="path7637"
       cx="38.754082"
       cy="81.981667"
       rx="1.0690781"
       ry="0.13363476"
       inkscape:export-xdpi="13.71"
       inkscape:export-ydpi="13.71" />
    <flowRoot
       xml:space="preserve"
       id="flowRoot7640"
       style="fill:black;fill-opacity:1;stroke:none;font-family:sans-serif;font-style:normal;font-weight:normal;font-size:40px;line-height:1.25;letter-spacing:0px;word-spacing:0px"><flowRegion
         id="flowRegion7642"><rect
           id="rect7644"
           width="308.96265"
           height="314.25745"
           x="535.5249"
           y="124.48897" /></flowRegion><flowPara
         id="flowPara7646"></flowPara></flowRoot>    <path
       style="font-style:normal;font-weight:normal;font-size:306.66665649px;line-height:1.25;font-family:sans-serif;letter-spacing:0px;word-spacing:0px;fill:#ffff00;fill-opacity:1;stroke:#000000;stroke-width:1.77999997;stroke-miterlimit:4;stroke-dasharray:none;stroke-opacity:1"
       d="m 160.79002,57.503351 -10.30118,32.843991 -2.11615,6.478156 a 12.447088,11.773089 0 0 0 -6.62492,-1.822627 12.447088,11.773089 0 0 0 -12.44678,11.773449 12.447088,11.773089 0 0 0 12.44678,11.77292 12.447088,11.773089 0 0 0 3.33106,-0.42943 h 11.9078 l 3.32797,-13.31185 13.62862,0.3173 3.64474,12.99455 h 20.36413 L 180.59915,58.058357 Z m 7.80469,11.846306 2.17919,10.85515 3.56568,12.202874 h -11.76672 z"
       id="flowRoot7648"
       inkscape:connector-curvature="0"
       inkscape:export-xdpi="13.71"
       inkscape:export-ydpi="13.71" />
    <flowRoot
       xml:space="preserve"
       id="flowRoot7661"
       style="font-style:normal;font-variant:normal;font-weight:normal;font-stretch:normal;font-size:40px;line-height:1.25;font-family:'AdLib BT';-inkscape-font-specification:'AdLib BT';letter-spacing:0px;word-spacing:0px;fill:#ffffff;fill-opacity:1;stroke:none"
       transform="matrix(0.26458333,0,0,0.26458333,-3.4017857,-5.858631)"
       inkscape:export-xdpi="13.71"
       inkscape:export-ydpi="13.71"><flowRegion
         id="flowRegion7663"
         style="font-style:normal;font-variant:normal;font-weight:normal;font-stretch:normal;font-family:'AdLib BT';-inkscape-font-specification:'AdLib BT';fill:#ffffff"><rect
           id="rect7665"
           width="86.428566"
           height="110.71429"
           x="306.42856"
           y="286.80539"
           style="font-style:normal;font-variant:normal;font-weight:normal;font-stretch:normal;font-family:'AdLib BT';-inkscape-font-specification:'AdLib BT';fill:#ffffff" /></flowRegion><flowPara
         id="flowPara7667"
         style="font-size:96px">H</flowPara></flowRoot>    <flowRoot
       xml:space="preserve"
       id="flowRoot7669"
       style="font-style:normal;font-variant:normal;font-weight:normal;font-stretch:normal;font-size:40px;line-height:1.25;font-family:'AdLib BT';-inkscape-font-specification:'AdLib BT';letter-spacing:0px;word-spacing:0px;fill:#ffffff;fill-opacity:1;stroke:none"
       transform="matrix(0.26458333,0,0,0.26458333,-0.1889881,-15.119048)"
       inkscape:export-xdpi="13.71"
       inkscape:export-ydpi="13.71"><flowRegion
         id="flowRegion7671"
         style="font-style:normal;font-variant:normal;font-weight:normal;font-stretch:normal;font-family:'AdLib BT';-inkscape-font-specification:'AdLib BT';fill:#ffffff"><rect
           id="rect7673"
           width="114.28571"
           height="142.14285"
           x="371.42856"
           y="402.51968"
           style="font-style:normal;font-variant:normal;font-weight:normal;font-stretch:normal;font-family:'AdLib BT';-inkscape-font-specification:'AdLib BT';fill:#ffffff" /></flowRegion><flowPara
         id="flowPara7675"
         style="font-style:normal;font-variant:normal;font-weight:normal;font-stretch:normal;font-size:96px;font-family:'AdLib BT';-inkscape-font-specification:'AdLib BT';fill:#ffffff">U</flowPara></flowRoot>  </g>
</svg>
